<?xml version="1.0"?>
<svg xmlns="http://www.w3.org/2000/svg" xmlns:xlink="http://www.w3.org/1999/xlink" xmlns:svgjs="http://svgjs.com/svgjs" version="1.1" width="512" height="512" x="0" y="0" viewBox="0 0 512 512" style="enable-background:new 0 0 512 512" xml:space="preserve" class=""><g><g xmlns="http://www.w3.org/2000/svg"><path d="m365.39 457.642h-51.428v-33.561c9.182-8.487 14.944-20.622 14.944-34.081s-5.763-25.594-14.944-34.081v-38.322c45.549-13.583 78.855-55.848 78.855-105.753v-138.503c0-7.995-6.505-14.5-14.5-14.5h-77.296c-4.143 0-7.5 3.358-7.5 7.5s3.357 7.5 7.5 7.5h76.796v56.897c-6.417-.832-10.497-2.733-15.034-4.851-6.732-3.143-14.362-6.704-28.881-6.704s-22.148 3.562-28.88 6.704c-6.088 2.842-11.346 5.296-22.535 5.296-11.19 0-16.449-2.454-22.538-5.296-6.732-3.143-14.363-6.704-28.883-6.704s-22.15 3.562-28.883 6.704c-4.539 2.119-8.62 4.02-15.038 4.852v-56.898h78.876c4.143 0 7.5-3.358 7.5-7.5s-3.357-7.5-7.5-7.5h-20.476c-3.788-33.237-32.033-58.836-65.896-58.841-.001 0-.002 0-.004 0h-.001c-.001 0-.002 0-.003 0-36.415.126-66.34 29.942-66.34 66.34 0 33.43 25.793 62.261 58.844 65.905v79.599c0 49.905 33.306 92.169 78.855 105.753v38.322c-9.182 8.487-14.944 20.622-14.944 34.081s5.763 25.594 14.944 34.081v33.561h-9.417c-4.143 0-7.5 3.358-7.5 7.5s3.357 7.5 7.5 7.5h123.807c10.096 0 18.309 8.213 18.309 18.309v6.049h-202.434v-6.049c0-10.096 8.213-18.309 18.309-18.309h7.011c4.143 0 7.5-3.358 7.5-7.5s-3.357-7.5-7.5-7.5h-7.011c-18.366 0-33.309 14.942-33.309 33.309v10.968c0 5.559 4.522 10.081 10.081 10.081h212.271c5.559 0 10.081-4.522 10.081-10.081v-10.968c0-18.367-14.942-33.309-33.308-33.309zm-134.962-398.801h-32.676l23.093-23.092c4.948 6.648 8.324 14.53 9.583 23.092zm-43.282-43.287c8.562 1.26 16.445 4.637 23.093 9.587l-23.093 23.093zm-48.704 20.19 23.097 23.096h-32.684c1.259-8.563 4.636-16.447 9.587-23.096zm-9.587 38.097h32.683l-23.096 23.096c-4.95-6.649-8.327-14.533-9.587-23.096zm43.291 43.286c-8.563-1.258-16.447-4.635-23.096-9.584l23.096-23.096zm0-68.893-23.097-23.096c6.649-4.95 14.533-8.326 23.097-9.585zm15 163.61v-66.014c9.856-.973 15.916-3.801 21.382-6.352 6.089-2.842 11.348-5.296 22.539-5.296s16.45 2.455 22.539 5.296c6.732 3.142 14.363 6.704 28.882 6.704s22.148-3.562 28.88-6.704c6.088-2.842 11.346-5.296 22.535-5.296s16.447 2.454 22.536 5.296c5.465 2.552 11.523 5.379 21.379 6.352v66.013c0 52.568-42.768 95.336-95.336 95.336s-95.336-42.767-95.336-95.335zm111.816 109.104v25.66c-5.125-1.953-10.678-3.033-16.48-3.033s-11.355 1.08-16.48 3.033v-25.66c5.378.809 10.881 1.232 16.48 1.232s11.102-.423 16.48-1.232zm0 136.694h-32.961v-24.25c5.125 1.953 10.678 3.033 16.48 3.033s11.355-1.08 16.48-3.033v24.25zm-16.481-36.217c-17.328 0-31.425-14.097-31.425-31.425s14.097-31.425 31.425-31.425 31.425 14.097 31.425 31.425-14.096 31.425-31.425 31.425z" fill="#522500" data-original="#000000" style="" class=""/></g></g></svg>
