<?xml version="1.0" encoding="UTF-8"?>
<svg width="95.25mm" height="50.175mm" version="1.1" viewBox="0 0 95.25 50.175" xmlns="http://www.w3.org/2000/svg" xmlns:cc="http://creativecommons.org/ns#" xmlns:dc="http://purl.org/dc/elements/1.1/" xmlns:rdf="http://www.w3.org/1999/02/22-rdf-syntax-ns#">
 <defs>
  <clipPath id="clipPath32647">
   <path d="m56.468 394.16h122.26v-92.744h-122.26z"/>
  </clipPath>
  <radialGradient id="radialGradient34634" cx="0" cy="0" r=".64999" gradientTransform="matrix(152.4,0,0,-66.9,-540.96,-678.38)" gradientUnits="userSpaceOnUse">
   <stop stop-color="#fff9ee" offset="0"/>
   <stop stop-color="#feeecf" offset="1"/>
  </radialGradient>
 </defs>
 <metadata>
  <rdf:RDF>
   <cc:Work rdf:about="">
    <dc:format>image/svg+xml</dc:format>
    <dc:type rdf:resource="http://purl.org/dc/dcmitype/StillImage"/>
    <dc:title/>
   </cc:Work>
  </rdf:RDF>
 </metadata>
 <g transform="translate(769.5 717.19)">
  <g transform="matrix(.75 0 0 .75 -316.16 -183.32)">
   <path d="m-604.46-711.83h127v66.9h-127z" fill="url(#radialGradient34634)"/>
   <g fill="none" stroke="#75c4f0" stroke-miterlimit="10">
    <path d="m-595.39-703.26h108.86" stroke-width=".4233"/>
    <g stroke-width=".35282">
     <path d="m-595.39-695.59h108.86"/>
     <path d="m-595.39-687.92h108.86"/>
     <path d="m-595.39-680.25h108.86"/>
     <path d="m-595.39-672.58h108.86"/>
     <path d="m-595.39-664.91h108.86"/>
     <path d="m-595.39-657.24h108.86"/>
     <path d="m-595.39-649.57h108.86"/>
    </g>
   </g>
   <path d="m-564.94-693.53v4.9763s0.27268-4.9988 0.36432-5.476c0 0 0.26596-2.0727 2.5666-2.1923 2.3008 0.11955 2.5678 2.1923 2.5678 2.1923 0.0841 0.44338 0.32591 4.7914 0.36018 5.4036v-4.9039s0.10111-1.4309-0.71658-2.5888c0 0-1.124-1.3302-0.74776-3.0852 0 0 2.0076-6.0644-1.4655-5.7943 3.4e-4 1.7e-4 1e-3 1.7e-4 2e-3 1.7e-4h-4e-3c3.6e-4 0 1e-3 0 2e-3 -1.7e-4 -3.4739-0.27009-1.4661 5.7943-1.4661 5.7943 0.37741 1.7551-0.7469 3.0852-0.7469 3.0852-0.81769 1.1579-0.71606 2.5888-0.71606 2.5888" fill="#d4b28a"/>
   <g fill="#b28754">
    <path d="m-560.01-701.98 0.0355 0.12868c-0.0224 6e-3 -2.2753 0.62959-4.0736-1e-3l0.0444-0.12575c1.758 0.61702 3.971 5e-3 3.9937-1e-3"/>
    <path d="m-560.01-703.33 0.0303 0.12971c-0.021 5e-3 -2.1914 0.50884-4.0425-3.5e-4l0.0357-0.12816c1.8173 0.50005 3.955 4e-3 3.9765-1e-3"/>
    <path d="m-562.01-696.22c-2.3006 0.11955-2.5666 2.1923-2.5666 2.1923-0.0916 0.47714-0.36432 5.476-0.36432 5.476v4.4138c0 2.1129 1.7389 2.0436 1.7389 2.0436h2.3818s1.7386 0.0693 1.7386-2.0436v-4.4862c-0.0343-0.61219-0.27612-4.9602-0.36018-5.4036 0 0-0.267-2.0727-2.5678-2.1923m2.3633 12.082c-0.15709 1.3295-2.0943 1.3234-2.4102 1.3138-0.32178 0.01-2.2502 0.0126-2.4068-1.3138 0 0-0.13591-5.3332 0.40893-8.2987 0 0 0.33091-3.0815 1.9988-2.902 1.6681-0.17863 1.9995 2.902 1.9995 2.902 0.54484 2.9655 0.40962 8.2987 0.40962 8.2987"/>
   </g>
   <g fill="#d4b28a">
    <path d="m-562.01-695.34c-0.0141-2e-3 -0.0288-3e-3 -0.0439-4e-3 -0.0141 1e-3 -0.0288 2e-3 -0.0431 5e-3l0.087-3.6e-4z"/>
    <path d="m-562.1-682.83s0.0172 3.6e-4 0.045 1e-3c0.0301-7e-4 0.0469-1e-3 0.0469-1e-3z"/>
    <path d="m-562.06-695.34c0.0152 1e-3 0.0298 2e-3 0.0439 4e-3l-0.087 3.5e-4c0.0143-3e-3 0.0289-4e-3 0.0431-5e-3 -1.668-0.17949-1.9988 2.902-1.9988 2.902-0.54484 2.9655-0.40893 8.2987-0.40893 8.2987 0.15658 1.3264 2.085 1.3234 2.4067 1.3138-0.0277-7e-4 -0.045-1e-3 -0.045-1e-3h0.0918s-0.0167 3.5e-4 -0.0469 1e-3c0.31592 0.01 2.2531 0.0157 2.4102-1.3138 0 0 0.13522-5.3332-0.40962-8.2987 0 0-0.33142-3.0806-1.9995-2.902"/>
    <path d="m-547.97-703.67c0-0.49781-0.40342-0.90158-0.90107-0.90158-0.49713 0-0.9002 0.40377-0.9002 0.90158 0 0.49748 0.40307 0.90072 0.9002 0.90072 0.49765 0 0.90107-0.40324 0.90107-0.90072"/>
   </g>
   <path d="m-548.87-702.91c0.36449 0 0.65974-0.29525 0.65974-0.65957 0-0.36431-0.29525-0.65973-0.65974-0.65973-0.36311 0-0.65956 0.29542-0.65956 0.65973 0 0.36432 0.29645 0.65957 0.65956 0.65957m0-1.0818c0.23306 0 0.42237 0.19 0.42237 0.42219 0 0.23341-0.18931 0.42134-0.42237 0.42134s-0.42134-0.18793-0.42134-0.42134c0-0.23219 0.18828-0.42219 0.42134-0.42219" fill="#b28754"/>
   <g fill="#d4b28a">
    <path d="m-550.72-677.2c-2.1041 4.326-1.8448 9.494-1.8448 9.494 0.12988 0.56034 0.51866 0.56844 0.51866 0.56844h6.3426s0.39033-8e-3 0.51918-0.56844c0 0 0.25838-5.168-1.8454-9.494 0 0-0.97961-2.3916-0.97961-3.9488 0 0-0.1161-3.834 0.0861-6.1114 0 0 0.56172-13.046 0.50453-13.564 0 0 0.0505-3.0201-0.23116-3.4883 0 0-0.20103-0.62718-1.2251-0.69918-1.023 0.072-1.2256 0.69918-1.2256 0.69918-0.28061 0.46819-0.22979 3.4883-0.22979 3.4883-0.0579 0.51831 0.50557 13.564 0.50557 13.564 0.20085 2.2774 0.0853 6.1114 0.0853 6.1114 0 1.5572-0.98047 3.9488-0.98047 3.9488m2.8885 2.0092v6.5708c0 0.18397-0.14934 0.33314-0.33331 0.33314-0.18363 0-0.3328-0.14917-0.3328-0.33314v-6.5708c0-0.18259 0.14917-0.33176 0.3328-0.33176 0.18397 0 0.33331 0.14917 0.33331 0.33176m-1.0435-29.039c0.36449 0 0.65974 0.29542 0.65974 0.65973 0 0.36432-0.29525 0.65957-0.65974 0.65957-0.36311 0-0.65956-0.29525-0.65956-0.65957 0-0.36431 0.29645-0.65973 0.65956-0.65973m-0.79926 28.707c0.18431 0 0.3328 0.14917 0.3328 0.33176v6.5708c0 0.18397-0.14849 0.33314-0.3328 0.33314-0.18328 0-0.33245-0.14917-0.33245-0.33314v-6.5708c0-0.18259 0.14917-0.33176 0.33245-0.33176"/>
    <path d="m-501.22-704.27c0-0.21498-0.27699-0.38947-0.61874-0.38947-0.3421 0-0.61908 0.17449-0.61908 0.38947 0 0.21463 0.27698 0.38895 0.61908 0.38895 0.34175 0 0.61874-0.17432 0.61874-0.38895"/>
    <path d="m-503.04-691.94c-0.0489 0.14883 0.0861 0.29594 0.20464 0.39119 0.87299-0.31626 1.6468-0.12678 1.9937-5e-3 0.11713-0.096 0.24632-0.24013 0.19809-0.38654 0 0 0.0124-0.15176-0.49403-0.5495 0 0-0.38964-0.30833-0.20016-1.1439 0 0 0.42134-4.5947 0.42134-5.5296 0 0 0.12609-4.3766 0.0314-4.7744 0 0 0.0241-0.98771-0.95636-1.0709-0.98116 0.0832-0.95739 1.0709-0.95739 1.0709-0.0951 0.39774 0.0317 4.7744 0.0317 4.7744 0 0.93483 0.42202 5.5296 0.42202 5.5296 0.18914 0.83561-0.20085 1.1439-0.20085 1.1439-0.50574 0.39774-0.49402 0.5495-0.49402 0.5495m0.71554-12.405c0-0.16761 0.21635-0.30317 0.48301-0.30317 0.2663 0 0.48266 0.13556 0.48266 0.30317 0 0.16778-0.21636 0.30334-0.48266 0.30334-0.26666 0-0.48301-0.13556-0.48301-0.30334"/>
   </g>
   <path d="m-501.84-704.03c0.27492 0 0.49816-0.14074 0.49816-0.31316 0-0.17294-0.22324-0.31333-0.49816-0.31333-0.27457 0-0.4985 0.14039-0.4985 0.31333 0 0.17242 0.22393 0.31316 0.4985 0.31316m0-0.51349c0.17535 0 0.31833 0.0894 0.31833 0.20033 0 0.11024-0.14298 0.19999-0.31833 0.19999-0.17604 0-0.31867-0.0897-0.31867-0.19999 0-0.11093 0.14263-0.20033 0.31867-0.20033" fill="#b28754"/>
   <path d="m-503.66-690.35c-0.95464-0.0338-0.75413 0.34813-0.75413 0.34813 0.0634 0.28163 0.81511 0.17553 0.81511 0.17553 0.64389 2e-3 0.22875 0.26096 0.22875 0.26096l-0.66042 0.44028c-0.34313 0.2782 0.10439 0.44924 0.10439 0.44924 0.31109 0.0892 0.40927-0.0715 0.40927-0.0715 0.34589-0.38275 0.61392-0.25167 0.61392-0.25167 0.16123 0.0531 0.10232 0.19689 0.10232 0.19689-0.0524 0.12575-0.15813 0.50367-0.15813 0.50367-0.11093 0.39826 0.3011 0.4613 0.3011 0.4613 0.46819 0.10956 0.51091-0.27199 0.51091-0.27199 0.0899-0.41754 0.30351-0.40152 0.30351-0.40152s0.21325-0.016 0.30282 0.40152c0 0 0.0417 0.38155 0.5116 0.27199 0 0 0.41134-0.063 0.30041-0.4613 0 0-0.10542-0.37792-0.15847-0.50367 0 0-0.0575-0.14383 0.1037-0.19689 0 0 0.26664-0.13108 0.61426 0.25167 0 0 0.0971 0.16071 0.40858 0.0715 0 0 0.44752-0.17104 0.10405-0.44924l-0.66043-0.44028s-0.41548-0.25856 0.2291-0.26096c0 0 0.75103 0.1061 0.81511-0.17553 0 0 0.19913-0.38189-0.75448-0.34813 0 0-0.49023 0.0162-0.49574-0.14624 0 0-0.11645-0.16244 0.38516-0.25184 0 0 0.47404-0.11317 0.30523-0.36845 0 0-0.20532-0.27647-0.6587-0.12937 0 0-0.21084 0.0949-0.28215 0.13988 0 0-0.12368 0.0811-0.31351-0.0279 0 0-0.20016-0.13453 0.0816-0.31023 0 0 0.0775-0.0432 0.16158-0.11197-0.34692-0.12213-1.1207-0.31161-1.9937 5e-3 0.082 0.0656 0.15572 0.10731 0.15572 0.10731 0.28181 0.17571 0.0813 0.31024 0.0813 0.31024-0.18948 0.10903-0.31384 0.0279-0.31384 0.0279-0.0706-0.045-0.28181-0.13987-0.28181-0.13987-0.45303-0.14711-0.65974 0.12936-0.65974 0.12936-0.16847 0.25528 0.30661 0.36846 0.30661 0.36846 0.50058 0.0894 0.38482 0.25183 0.38482 0.25183-5e-3 0.16244-0.49575 0.14625-0.49575 0.14625m1.571-0.27751c0-0.0851 0.1099-0.15364 0.24564-0.15364 0.13505 0 0.24495 0.0686 0.24495 0.15364v1.1095c0 0.0849-0.1099 0.15382-0.24495 0.15382-0.13574 0-0.24564-0.0689-0.24564-0.15382z" fill="#b28754"/>
   <path d="m-513.6-703.25c0-0.36673-0.2887-0.65543-0.65525-0.65543-0.36656 0-0.65526 0.2887-0.65526 0.65543 0 0.36638 0.2887 0.66197 0.65526 0.66197 0.36655 0 0.65525-0.29559 0.65525-0.66197" fill="#d4b28a"/>
   <path d="m-515.61-686.54c-1.4983 2.6233-0.85886 8.2224-0.85886 8.2224h0.80168v-4.8776c0-0.24959 0.19705-0.45354 0.44682-0.45354s0.4582 0.20395 0.4582 0.45354v4.8776h1.0056v-4.8776c0-0.24959 0.20395-0.45354 0.45372-0.45354s0.45131 0.20395 0.45131 0.45354v4.8776h0.80856s0.63907-5.5991-0.8592-8.2224c0 0-0.89538-2.1602-0.56327-4.7628 0 0 1.7594-13.959-0.79065-13.709-2.5497-0.24977-0.79031 13.709-0.79031 13.709 0.33211 2.6026-0.56362 4.7628-0.56362 4.7628m1.3539-17.398c0.37827 0 0.69211 0.30696 0.69211 0.69177 0 0.37586-0.31384 0.68506-0.69211 0.68506-0.37793 0-0.69178-0.3092-0.69178-0.68506 0-0.38481 0.31385-0.69177 0.69178-0.69177" fill="#d4b28a"/>
   <path d="m-514.25-702.56c0.37827 0 0.69211-0.3092 0.69211-0.68506 0-0.38481-0.31384-0.69177-0.69211-0.69177-0.37793 0-0.69178 0.30696-0.69178 0.69177 0 0.37586 0.31385 0.68506 0.69178 0.68506m0-1.1272c0.24287 0 0.44234 0.19706 0.44234 0.44217 0 0.23599-0.19947 0.43529-0.44234 0.43529-0.24288 0-0.44201-0.1993-0.44201-0.43529 0-0.24511 0.19913-0.44217 0.44201-0.44217" fill="#b28754"/>
   <path d="m-530.71-703.09c0-0.49764-0.40342-0.90158-0.90089-0.90158-0.49816 0-0.90089 0.40394-0.90089 0.90158 0 0.49748 0.40273 0.90072 0.90089 0.90072 0.49747 0 0.90089-0.40324 0.90089-0.90072" fill="#d4b28a"/>
   <path d="m-531.62-666.93s2.0209 0 2.8594-1.9544c0 0 0.68661-1.3341 0.34554-3.4485 0 0-0.25563-1.6094-0.86368-2.6324 0 0-0.87437-1.8128-2.3413-1.8343-1.4683 0.0215-2.342 1.8343-2.342 1.8343-0.60668 1.023-0.86334 2.6324-0.86334 2.6324-0.34175 2.1144 0.34555 3.4485 0.34555 3.4485 0.85196 1.9544 2.8598 1.9544 2.8598 1.9544m0.80546-7.2686c0-0.18517 0.14952-0.33486 0.33486-0.33486 0.18397 0 0.33349 0.14969 0.33349 0.33486v4.2084c0 0.18379-0.14952 0.33538-0.33349 0.33538-0.18534 0-0.33486-0.15159-0.33486-0.33538v-4.2084m-1.1517-0.76671c0-0.19068 0.15571-0.34519 0.34623-0.34519 0.18982 0 0.34382 0.15451 0.34382 0.34519v5.9573c0 0.19034-0.154 0.3452-0.34382 0.3452-0.19052 0-0.34623-0.15486-0.34623-0.3452v-5.9573m-1.1221 0.76671c0-0.18517 0.15055-0.33486 0.33486-0.33486 0.185 0 0.33452 0.14969 0.33452 0.33486v4.2084c0 0.18379-0.14952 0.33538-0.33452 0.33538-0.18431 0-0.33486-0.15159-0.33486-0.33538z" fill="#b28754"/>
   <path d="m-534.88-669.05c0.95085 2.439 3.2804 2.439 3.2804 2.439s2.3316 0 3.2587-2.439c0 0 0.6053-1.5255 0.18776-3.7843 0 0-0.4172-1.6838-1.1517-2.9214 0 0-1.3095-2.4608-1.3095-3.4818 0 0-0.1726-1.4966 0-5.0062l0.17226-7.3959 0.14469-7.4533s0.14401-4.3455-0.25907-5.1509c0 0-0.24426-0.70573-1.0432-0.76274h-0.0203c-0.79891 0.057-1.0432 0.76274-1.0432 0.76274-0.40342 0.80546-0.25907 5.1509-0.25907 5.1509l0.14331 7.4533 0.17295 7.3959c0.1726 3.5097 0 5.0062 0 5.0062 0 1.021-1.3095 3.4818-1.3095 3.4818-0.73346 1.2376-1.151 2.9214-1.151 2.9214-0.41685 2.2588 0.18638 3.7843 0.18638 3.7843m3.2804-34.705c0.36449 0 0.65871 0.29525 0.65871 0.65871 0 0.36345-0.29422 0.65836-0.65871 0.65836-0.3638 0-0.65836-0.29491-0.65836-0.65836 0-0.36346 0.29456-0.65871 0.65836-0.65871m-3.2256 31.424s0.25666-1.6094 0.86334-2.6324c0 0 0.87368-1.8128 2.342-1.8343 1.4669 0.0215 2.3413 1.8343 2.3413 1.8343 0.60806 1.023 0.86369 2.6324 0.86369 2.6324 0.34106 2.1144-0.34555 3.4485-0.34555 3.4485-0.83853 1.9544-2.8594 1.9544-2.8594 1.9544s-2.0078 0-2.8598-1.9544c0 0-0.6873-1.3341-0.34554-3.4485" fill="#d4b28a"/>
   <path d="m-531.6-702.44c0.36449 0 0.65871-0.29491 0.65871-0.65836 0-0.36346-0.29422-0.65871-0.65871-0.65871-0.3638 0-0.65835 0.29525-0.65835 0.65871 0 0.36345 0.29455 0.65836 0.65835 0.65836m0-1.0792c0.23289 0 0.421 0.18793 0.421 0.42082 0 0.2322-0.18811 0.42099-0.421 0.42099-0.2322 0-0.4203-0.18879-0.4203-0.42099 0-0.23289 0.1881-0.42082 0.4203-0.42082" fill="#b28754"/>
   <path d="m-577.83-703.52c0-0.38603-0.40342-0.69918-0.90176-0.69918-0.49712 0-0.89968 0.31315-0.89968 0.69918 0 0.38619 0.40256 0.69866 0.89968 0.69866 0.49834 0 0.90176-0.31247 0.90176-0.69866" fill="#d4b28a"/>
   <path d="m-581.72-678.99h5.9624s2.7814-3.2368-1.1936-9.0024c0 0-1.0718-1.4483-0.7941-3.5767 0 0 1.2323-13.255-0.9946-13.44-2.2247 0.18569-0.99287 13.44-0.99287 13.44 0.27871 2.1284-0.79375 3.5767-0.79375 3.5767-3.9765 5.7655-1.1936 9.0024-1.1936 9.0024m2.9802-25.078c0.38034 0 0.68988 0.23858 0.68988 0.53296 0 0.29559-0.30954 0.53382-0.68988 0.53382-0.3793 0-0.68781-0.23823-0.68781-0.53382 0-0.29438 0.30851-0.53296 0.68781-0.53296" fill="#d4b28a"/>
   <path d="m-578.74-685.88c2.8625 0 3.1805 2.117 3.1805 2.117 0.66817 2.621-0.58308 4.3568-0.58308 4.3568h-5.1926s-1.2516-1.7358-0.5836-4.3568c0 0 0.31799-2.117 3.1788-2.117" fill="#b28754"/>
   <path d="m-578.74-703c0.38034 0 0.68988-0.23823 0.68988-0.53382 0-0.29438-0.30954-0.53296-0.68988-0.53296-0.3793 0-0.68781 0.23858-0.68781 0.53296 0 0.29559 0.30851 0.53382 0.68781 0.53382m0-0.87557c0.2434 0 0.44029 0.1533 0.44029 0.34175 0 0.18896-0.19689 0.34175-0.44029 0.34175-0.24098 0-0.43873-0.15279-0.43873-0.34175 0-0.18845 0.19775-0.34175 0.43873-0.34175" fill="#b28754"/>
   <g transform="matrix(.15315 .018112 .018112 -.15315 -514.58 -617.65)">
    <g clip-path="url(#clipPath32647)" opacity=".39999">
     <g transform="translate(79.594,342.63)">
      <path d="m0 0c5.272-8.987 3.408-31.153 3.408-31.153s31.994-22.655 78.118 0c-1.113 12.763 2.165 25.526 8.219 31.398 6.055 5.871 15.794 22.718 3.422 37.785-9.598 11.689-21.907 8.858-26.945 7.001-12.066 11.249-28.331 5.014-33.809 2.395-17.843 7.606-31.098-3.358-35.403-7.693-3.637-0.148-7.649-0.948-11.452-3.084-1.922-1.082-3.811-2.498-5.334-4.413-0.792-0.931-1.406-1.99-1.993-3.296l-0.284-0.742-0.137-0.365-0.018-0.046-0.056-0.181-0.027-0.109-0.053-0.22c-0.137-0.588-0.276-1.179-0.414-1.773-0.169-0.594-0.182-1.197-0.245-1.803-0.041-0.605-0.131-1.217-0.123-1.826 0.081-1.209 0.029-2.456 0.306-3.658 0.297-2.461 1.256-4.814 2.403-7.076 2.443-4.452 6.679-8.246 11.803-10.054 2.847-0.921 5.75-1.218 8.614-1.087" fill="#231f20"/>
     </g>
    </g>
   </g>
   <g transform="matrix(.15315 .018112 .018112 -.15315 -495.05 -667.77)">
    <path d="m0 0-0.987 3.829s16.978 7.275 43.234 6.701c0 0-31.389-3.638-42.247-10.53m0.79-5.935v2.68s20.926 8.839 34.548 8.536c0 0-25.862-7.004-34.548-11.216m-5.736 19.638c0.804 0.25 1.591 0.496 2.39 0.744-4.43 4.138-2.182 9.484-2.182 9.484 0.506-4.911 3.606-7.288 5.767-8.367 0.15 0.047 0.303 0.095 0.452 0.141 1.116 0.382 2.242 0.654 3.364 0.894 1.121 0.241 2.226 0.544 3.333 0.723 2.37 0.436 4.702 0.729 6.983 0.934-1.312 1.518-2.685 4.613-2.131 10.844 0 0 1.795-6.984 6.14-10.576 0.594 0.028 1.194 0.062 1.778 0.08 2.026 0.082 3.991 0.061 5.891 0.048 1.897-0.097 3.728-0.135 5.477-0.273 1.015-0.064 1.995-0.143 2.956-0.228 1.972 1.589 4.649 4.575 3.775 8.677 0 0 2.856-5.039-0.829-8.976 1.254-0.142 2.466-0.295 3.601-0.46 2.504-0.323 4.684-0.727 6.544-1.081 2.209 1.163 4.933 3.236 5.927 6.663 0 0 0.297-4.984-3.12-7.234 2.642-0.575 4.107-0.998 4.107-0.998s-2.322 0.126-6.361 0.232c-2.019 0.054-4.47 0.083-7.27 0.091-2.801 0.016-5.956-0.075-9.379-0.187-3.424-0.141-7.116-0.415-10.98-0.818-3.866-0.412-7.882-1.11-11.942-1.998-1.019-0.212-2.004-0.54-3.017-0.806-1.016-0.265-2.025-0.558-2.993-0.947-1.045-0.379-2.097-0.76-3.154-1.142-1.065-0.356-2.135-0.714-3.21-1.074-0.94-0.26-1.899-0.469-2.866-0.649 1.648-4.567 4.772-14.829 3.789-24.738 0 0 35.799 13.529 68.702-0.255 0 0-0.79 12.38 8.16 24.76 8.949 12.381 13.029 19.528 9.212 29.1-3.754 9.417-10.445 18.207-26.073 13.994 2.239-2.486 4.299-5.65 6.068-9.654 0 0-12.086 22.217-36.489 11.143 2.858-1.724 5.812-3.93 8.851-6.726 0 0-23.194 16.131-43.122 1.208 1.376-0.256 2.672-0.602 3.859-1.009 2.793-0.97 4.992-2.315 6.603-3.596 1.627-1.278 2.628-2.538 3.302-3.369 0.607-0.882 0.93-1.352 0.93-1.352s-0.417 0.388-1.199 1.116c-0.812 0.688-2.039 1.652-3.746 2.601-1.71 0.942-3.933 1.794-6.549 2.344-2.629 0.502-5.669 0.651-8.873 0.196-3.185-0.465-6.566-1.559-9.455-3.466-1.428-0.959-2.725-2.132-3.632-3.511-0.49-0.668-0.819-1.455-1.088-2.03l-0.236-0.724-0.12-0.371-6e-3 -0.02c0.018 0.054 0.05 0.15 0.023 0.06l-0.014-0.081-0.027-0.163-0.232-1.298c-0.553-3.525 0.451-7.368 2.215-10.678 1.897-3.284 4.941-5.852 8.531-7.094 3.595-1.254 7.819-1.065 11.565-0.128" fill="#fff"/>
   </g>
   <g transform="matrix(.43716 0 0 .43716 -613.76 -647.66)" font-family="Dyuthi" font-size="28.586px" stroke="#a69d90">
    <text x="34.789303" y="-12.57389" stroke-linecap="round" stroke-linejoin="round" stroke-width="9" style="font-variant-caps:normal;font-variant-east-asian:normal;font-variant-ligatures:normal;font-variant-numeric:normal;line-height:1.25" xml:space="preserve"><tspan x="34.789303" y="-12.57389" fill="#000000" font-family="Dyuthi" font-size="28.586px" stroke="#a69d90" stroke-linecap="round" stroke-linejoin="round" stroke-width="9" style="font-variant-caps:normal;font-variant-east-asian:normal;font-variant-ligatures:normal;font-variant-numeric:normal">console.log('top-chef')</tspan></text>
    <text x="34.789303" y="-12.57389" stroke-width="2.3" style="font-variant-caps:normal;font-variant-east-asian:normal;font-variant-ligatures:normal;font-variant-numeric:normal;line-height:1.25" xml:space="preserve"><tspan x="34.789303" y="-12.57389" fill="#000000" font-family="Dyuthi" font-size="28.586px" stroke="#a69d90" stroke-width="2.3" style="font-variant-caps:normal;font-variant-east-asian:normal;font-variant-ligatures:normal;font-variant-numeric:normal">console.log('top-chef')</tspan></text>
   </g>
   <g transform="matrix(.15315 .018112 .018112 -.15315 -491.15 -664.79)">
    <path d="m0 0c-17.973-1.585-26.712-4.25-30.759-6.045 1e-3 0 15.427-8.314 36.945-8.314 21.499 0 34.567 8.299 34.59 8.314-5.961 2.882-19.734 7.9-40.776 6.045" fill="#bbbdbf"/>
   </g>
   <g transform="matrix(.15315 .018112 .018112 -.15315 -484.53 -662.77)">
    <path d="m0 0s-1.137 0.779-3.365 1.858z" fill="#fff"/>
   </g>
   <g transform="matrix(.15315 .018112 .018112 -.15315 -498.51 -671.43)">
    <path d="m0 0c-1.764 3.31-2.768 7.153-2.214 10.678l0.231 1.298 0.027 0.163 0.014 0.081c0.027 0.09-5e-3 -6e-3 -0.023-0.06l7e-3 0.02 0.119 0.371 0.236 0.724c0.27 0.575 0.598 1.362 1.088 2.03 0.908 1.379 2.204 2.552 3.633 3.511 2.889 1.907 6.27 3.001 9.455 3.466 3.203 0.455 6.243 0.306 8.872-0.196 2.616-0.55 4.84-1.402 6.549-2.344 1.707-0.949 2.934-1.913 3.746-2.601 0.782-0.728 1.199-1.116 1.199-1.116s-0.323 0.47-0.929 1.352c-0.674 0.831-1.676 2.091-3.303 3.369-1.611 1.28-3.809 2.626-6.603 3.596-1.187 0.407-2.482 0.753-3.859 1.009 19.928 14.923 43.122-1.208 43.122-1.208-3.038 2.796-5.993 5.002-8.85 6.725 24.402 11.075 36.489-11.142 36.489-11.142-1.77 4.004-3.83 7.168-6.069 9.654 15.628 4.213 22.319-4.577 26.074-13.994 3.816-9.572-0.264-16.719-9.213-29.1-8.95-12.38-8.16-24.761-8.16-24.761-32.903 13.785-68.701 0.256-68.701 0.256 0.982 9.909-2.142 20.171-3.789 24.738 0.966 0.18 1.925 0.389 2.866 0.649 1.074 0.36 2.144 0.718 3.209 1.074 1.057 0.382 2.109 0.763 3.154 1.142 0.968 0.389 1.978 0.682 2.993 0.947 1.014 0.266 1.998 0.593 3.017 0.806 4.06 0.888 8.076 1.586 11.942 1.998 3.864 0.403 7.556 0.677 10.98 0.818 3.423 0.112 6.579 0.203 9.379 0.187 2.8-8e-3 5.251-0.037 7.27-0.091 4.04-0.106 6.361-0.232 6.361-0.232s-1.464 0.423-4.107 0.998c3.417 2.25 3.12 7.234 3.12 7.234-0.993-3.427-3.718-5.5-5.927-6.663-1.86 0.354-4.04 0.758-6.544 1.081-1.134 0.165-2.347 0.317-3.601 0.46 3.685 3.937 0.829 8.976 0.829 8.976 0.874-4.102-1.803-7.088-3.775-8.677-0.961 0.085-1.941 0.164-2.955 0.228-1.75 0.138-3.581 0.176-5.478 0.273-1.899 0.013-3.865 0.034-5.891-0.048-0.584-0.018-1.184-0.052-1.778-0.08-4.344 3.592-6.14 10.576-6.14 10.576-0.554-6.231 0.819-9.326 2.131-10.844-2.281-0.205-4.612-0.498-6.983-0.934-1.107-0.179-2.212-0.482-3.333-0.723-1.122-0.24-2.247-0.512-3.364-0.894-0.149-0.046-0.302-0.094-0.451-0.141-2.162 1.079-5.261 3.456-5.768 8.367 0 0-2.248-5.346 2.183-9.484-0.799-0.249-1.586-0.494-2.391-0.744-3.745-0.937-7.97-1.126-11.565 0.128-3.589 1.242-6.634 3.81-8.531 7.094m58.603-51.557c-21.518 0-36.944 8.314-36.945 8.314 4.048 1.795 12.787 4.46 30.76 6.045 21.041 1.855 34.815-3.163 40.776-6.046-0.024-0.014-13.091-8.313-34.591-8.313m-43.549 37.599c5.271-8.987 3.408-31.153 3.408-31.153s31.993-22.655 78.117 0l-3.365 1.857c2.228-1.078 3.365-1.857 3.365-1.857-1.112 12.763 2.166 25.526 8.22 31.397s15.793 22.719 3.422 37.785c-9.598 11.689-21.907 8.859-26.945 7.002-12.067 11.248-28.331 5.014-33.81 2.395-17.842 7.606-31.097-3.359-35.402-7.693-3.637-0.148-7.649-0.949-11.452-3.084-1.922-1.082-3.811-2.498-5.334-4.414-0.793-0.931-1.406-1.989-1.994-3.296l-0.283-0.741-0.138-0.366-0.017-0.045-0.056-0.181-0.027-0.11-0.053-0.219c-0.138-0.589-0.276-1.18-0.415-1.773-0.169-0.595-0.181-1.198-0.244-1.803-0.041-0.605-0.132-1.218-0.123-1.826 0.08-1.209 0.028-2.456 0.306-3.659 0.297-2.46 1.255-4.813 2.403-7.076 2.443-4.451 6.679-8.245 11.803-10.053 2.846-0.921 5.75-1.218 8.614-1.087"/>
   </g>
   <g transform="matrix(.15315 .018112 .018112 -.15315 -495.13 -668.38)">
    <path d="M 0,0 0.987,-3.829 C 11.845,3.063 43.234,6.701 43.234,6.701 16.978,7.275 0,0 0,0"/>
   </g>
   <g transform="matrix(.15315 .018112 .018112 -.15315 -494.99 -667.26)">
    <path d="M 0,0 V -2.68 C 8.686,1.532 34.548,8.536 34.548,8.536 20.926,8.839 0,0 0,0"/>
   </g>
   <g transform="matrix(.15315 .018112 .018112 -.15315 -488.67 -674.02)">
    <path d="m0 0s-0.537 0.372-1.505 0.946z" fill="#e6e7e8"/>
   </g>
   <g transform="matrix(.43716 0 0 .43716 -614.31 -648.14)" font-family="Dyuthi" font-size="28.586px">
    <text x="34.789303" y="-12.57389" stroke="#ffffff" stroke-linecap="round" stroke-linejoin="round" stroke-width="9" style="font-variant-caps:normal;font-variant-east-asian:normal;font-variant-ligatures:normal;font-variant-numeric:normal;line-height:1.25" xml:space="preserve"><tspan x="34.789303" y="-12.57389" fill="#000000" font-family="Dyuthi" font-size="28.586px" stroke="#ffffff" stroke-linecap="round" stroke-linejoin="round" stroke-width="9" style="font-variant-caps:normal;font-variant-east-asian:normal;font-variant-ligatures:normal;font-variant-numeric:normal">console.log('top-chef')</tspan></text>
    <text x="34.789303" y="-12.57389" stroke-width="2.3" style="font-variant-caps:normal;font-variant-east-asian:normal;font-variant-ligatures:normal;font-variant-numeric:normal;line-height:1.25" xml:space="preserve"><tspan x="34.789303" y="-12.57389" fill="#000000" font-family="Dyuthi" font-size="28.586px" stroke-width="2.3" style="font-variant-caps:normal;font-variant-east-asian:normal;font-variant-ligatures:normal;font-variant-numeric:normal">console.log('top-chef')</tspan></text>
   </g>
  </g>
 </g>
</svg>
