<svg height="512pt" viewBox="0 0 512 512" width="512pt" xmlns="http://www.w3.org/2000/svg"><path d="m512 256c0 141.386719-114.613281 256-256 256s-256-114.613281-256-256 114.613281-256 256-256 256 114.613281 256 256zm0 0" fill="#f7ef87"/><path d="m179.066406 11.769531c-103.792968 32.664063-179.066406 129.652344-179.066406 244.230469 0 141.386719 114.613281 256 256 256 87.902344 0 165.445312-44.308594 211.542969-111.804688-271.320313 69.203126-410.671875-246.363281-288.476563-388.425781zm0 0" fill="#efd176"/><path d="m467.605469 256c0 116.867188-94.738281 211.605469-211.605469 211.605469s-211.605469-94.738281-211.605469-211.605469 94.738281-211.605469 211.605469-211.605469 211.605469 94.738281 211.605469 211.605469zm0 0" fill="#8eafe2"/><g fill="#6a96d7"><path d="m44.394531 256c0 116.867188 94.738281 211.605469 211.605469 211.605469 56.253906 0 107.375-21.960938 145.277344-57.765625-193.785156 6.101562-300.222656-193.832032-257.453125-333.277344-59.710938 37.40625-99.429688 103.78125-99.429688 179.4375zm0 0"/><path d="m361.359375 381.96875c-1.921875 0-3.839844-.730469-5.304687-2.195312-2.929688-2.929688-2.929688-7.675782 0-10.605469l18.046874-18.046875c2.929688-2.929688 7.679688-2.929688 10.605469-.003906 2.929688 2.929687 2.929688 7.679687 0 10.609374l-18.046875 18.046876c-1.464844 1.464843-3.382812 2.195312-5.300781 2.195312zm0 0"/><path d="m366.5 340.738281c-1.917969 0-3.839844-.730469-5.304688-2.195312-2.925781-2.929688-2.925781-7.675781 0-10.605469l18.046876-18.046875c2.933593-2.929687 7.679687-2.929687 10.609374 0 2.929688 2.929687 2.929688 7.675781 0 10.605469l-18.046874 18.050781c-1.464844 1.460937-3.382813 2.191406-5.304688 2.191406zm0 0"/><path d="m147.742188 149.992188c-1.921876 0-3.839844-.730469-5.304688-2.195313-2.929688-2.929687-2.929688-7.679687 0-10.605469l18.046875-18.050781c2.929687-2.925781 7.679687-2.925781 10.609375 0 2.925781 2.929687 2.925781 7.679687 0 10.609375l-18.050781 18.046875c-1.464844 1.464844-3.382813 2.195313-5.300781 2.195313zm0 0"/></g><path d="m288.289062 265.496094c-100.816406 0-140.242187 58.25-145.015624 116.191406-.773438 9.382812-13.363282 11.972656-17.640626 3.585938-68.375-134.082032 54.835938-235.167969 162.65625-235.167969v-34.582031c0-11.914063 13.769532-18.546876 23.085938-11.128907l94.351562 75.144531c18.164063 14.464844 18.164063 42.0625 0 56.527344l-94.351562 75.140625c-9.316406 7.421875-23.085938.785157-23.085938-11.128906zm0 0" fill="#fff"/><path d="m125.632812 385.273438c4.277344 8.386718 16.867188 5.796874 17.640626-3.585938 2.53125-30.699219 14.789062-61.484375 40.75-83.644531-17.867188-26.121094-31.191407-55.046875-39.5-84.765625-38.40625 42.269531-54.214844 102.730468-18.890626 171.996094zm0 0" fill="#f6e3a3"/></svg>