<?xml version="1.0" encoding="iso-8859-1"?>
<!-- Generator: Adobe Illustrator 19.0.0, SVG Export Plug-In . SVG Version: 6.00 Build 0)  -->
<svg version="1.1" id="Capa_1" xmlns="http://www.w3.org/2000/svg" xmlns:xlink="http://www.w3.org/1999/xlink" x="0px" y="0px"
	 viewBox="0 0 512 512" style="enable-background:new 0 0 512 512;" xml:space="preserve">
<g>
	<g>
		<g>
			<path d="M256.012,282.995c-4.142,0-7.5,3.357-7.5,7.5c0,10.825-8.806,19.631-19.63,19.631c-10.824,0-19.63-8.806-19.63-19.631
				c0-4.143-3.358-7.5-7.5-7.5c-4.142,0-7.5,3.357-7.5,7.5c0,19.096,15.536,34.632,34.631,34.632c10.98,0,20.781-5.136,27.13-13.132
				c6.349,7.995,16.152,13.132,27.131,13.132c19.096,0,34.631-15.536,34.631-34.632c0-4.143-3.357-7.5-7.5-7.5s-7.5,3.357-7.5,7.5
				c0,10.825-8.806,19.631-19.63,19.631c-10.825,0-19.631-8.806-19.631-19.631C263.513,286.352,260.155,282.995,256.012,282.995z"/>
			<path d="M66.35,382.387C41.341,344.935,28.121,301.231,28.121,256c0-10.344,0.706-20.7,2.095-30.933l64.98,64.978
				c5.126,5.127,11.943,7.95,19.193,7.95s14.066-2.823,19.192-7.949l74.328-74.327c27.548-27.55,27.843-72.234,0.656-99.611
				c-13.252-13.343-30.904-20.709-49.705-20.741h-0.125c-16.357,0-31.858,5.553-44.353,15.772
				c-6.965-5.665-14.864-9.847-23.209-12.475c42.945-44.989,102.322-70.554,164.84-70.554c31.184,0,61.399,6.185,89.808,18.382
				c3.806,1.633,8.217-0.127,9.852-3.933c1.634-3.807-0.127-8.217-3.933-9.852c-30.29-13.005-62.498-19.598-95.727-19.598
				c-69.89,0-136.084,29.987-182.257,82.385c-11.322-0.615-22.849,1.488-33.535,6.498c-3.75,1.759-5.365,6.225-3.607,9.975
				c1.759,3.752,6.227,5.365,9.974,3.607c20.985-9.838,46.101-5.433,62.498,10.965c2.928,2.928,7.677,2.928,10.607,0
				c10.432-10.432,24.293-16.173,39.043-16.173h0.098c14.785,0.025,28.666,5.817,39.087,16.312
				c21.379,21.527,21.101,56.713-0.619,78.433l-74.328,74.328c-2.293,2.293-5.342,3.556-8.585,3.556s-6.292-1.263-8.585-3.557
				l-74.328-74.327c-0.02-0.02-0.038-0.04-0.057-0.06c-0.12-0.123-0.238-0.248-0.355-0.373l-0.407-0.433
				c-0.017-0.018-0.038-0.032-0.055-0.05c-18.446-19.308-20.77-49.613-5.252-71.039c2.43-3.355,1.68-8.044-1.675-10.474
				c-3.356-2.43-8.044-1.68-10.474,1.675c-9.719,13.421-14.325,30.026-12.968,46.755c1.217,15.008,7.193,29.226,16.945,40.601
				c-2.682,14.556-4.057,29.432-4.057,44.287c0,48.206,14.093,94.791,40.754,134.718c2.903,4.348,5.987,8.657,9.166,12.811
				c1.477,1.929,3.705,2.941,5.96,2.94c1.59,0,3.194-0.504,4.554-1.545c3.289-2.518,3.914-7.226,1.396-10.516
				C71.968,390.512,69.074,386.467,66.35,382.387z"/>
			<path d="M491.811,116.108c-13.252-13.344-30.904-20.709-49.705-20.741h-0.125c-1.243,0-2.479,0.043-3.712,0.107
				c-16.825-19.093-36.402-35.355-58.252-48.357c-3.559-2.119-8.163-0.95-10.28,2.61c-2.118,3.56-0.949,8.162,2.61,10.281
				c17.868,10.633,34.115,23.59,48.448,38.603c-8.397,2.646-16.24,6.865-23.159,12.523c-12.496-10.216-27.991-15.767-44.346-15.767
				h-0.125c-18.802,0.032-36.454,7.399-49.706,20.741c-27.186,27.377-26.891,72.063,0.657,99.611l74.327,74.326
				c5.126,5.127,11.943,7.95,19.193,7.95c7.249,0,14.066-2.823,19.193-7.949l64.979-64.979c1.389,10.234,2.095,20.588,2.095,30.933
				c0,60.871-23.704,118.1-66.747,161.143S316.883,483.89,256.012,483.89c-60.342,0-117.214-23.351-160.14-65.75
				c-2.947-2.91-7.695-2.881-10.608,0.065c-2.911,2.947-2.881,7.695,0.066,10.607c45.752,45.191,106.368,70.078,170.681,70.078
				c64.878,0,125.873-25.265,171.749-71.141c45.876-45.876,71.141-106.871,71.141-171.749c0-14.859-1.376-29.737-4.058-44.294
				C518.65,183.989,517.718,142.195,491.811,116.108z M481.396,204.218c-0.008,0.008-0.017,0.014-0.025,0.022l-0.307,0.327
				c-0.175,0.179-0.339,0.365-0.517,0.543l-74.327,74.327c-2.293,2.294-5.342,3.557-8.585,3.557s-6.292-1.263-8.585-3.557
				l-74.327-74.327c-21.721-21.72-21.999-56.905-0.621-78.433c10.422-10.494,24.303-16.286,39.088-16.312h0.099
				c14.749,0,28.611,5.741,39.044,16.173c2.928,2.928,7.677,2.928,10.607,0c8.93-8.931,20.379-14.411,32.744-15.806
				c0.243-0.019,0.486-0.047,0.728-0.089c1.839-0.183,3.698-0.278,5.571-0.278h0.098c14.786,0.025,28.667,5.817,39.089,16.312
				C502.259,147.917,502.256,182.438,481.396,204.218z"/>
		</g>
	</g>
</g>
<g>
</g>
<g>
</g>
<g>
</g>
<g>
</g>
<g>
</g>
<g>
</g>
<g>
</g>
<g>
</g>
<g>
</g>
<g>
</g>
<g>
</g>
<g>
</g>
<g>
</g>
<g>
</g>
<g>
</g>
</svg>
